<?xml version="1.0" encoding="UTF-8"?>
<svg xmlns="http://www.w3.org/2000/svg" xmlns:xlink="http://www.w3.org/1999/xlink" viewBox="0 0 480 480" width="480px" height="480px">
<g id="surface21749192">
<path style=" stroke:none;fill-rule:nonzero;fill:rgb(100%,100%,100%);fill-opacity:1;" d="M 252 450 C 136.210938 450 42 355.789062 42 240 C 42 124.210938 136.210938 30 252 30 C 367.789062 30 462 124.210938 462 240 C 462 355.789062 367.789062 450 252 450 Z M 252 90 C 169.285156 90 102 157.285156 102 240 C 102 322.714844 169.285156 390 252 390 C 334.714844 390 402 322.714844 402 240 C 402 157.285156 334.714844 90 252 90 Z M 252 90 "/>
<path style=" stroke:none;fill-rule:nonzero;fill:rgb(100%,100%,100%);fill-opacity:1;" d="M 252 36 C 364.488281 36 456 127.511719 456 240 C 456 352.488281 364.488281 444 252 444 C 139.511719 444 48 352.488281 48 240 C 48 127.511719 139.511719 36 252 36 M 252 396 C 338.015625 396 408 326.015625 408 240 C 408 153.984375 338.015625 84 252 84 C 165.984375 84 96 153.984375 96 240 C 96 326.015625 165.984375 396 252 396 M 252 24 C 132.707031 24 36 120.707031 36 240 C 36 359.292969 132.707031 456 252 456 C 371.292969 456 468 359.292969 468 240 C 468 120.707031 371.292969 24 252 24 Z M 252 384 C 172.476562 384 108 319.523438 108 240 C 108 160.476562 172.476562 96 252 96 C 331.523438 96 396 160.476562 396 240 C 396 319.523438 331.523438 384 252 384 Z M 252 384 "/>
<path style=" stroke:none;fill-rule:nonzero;fill:rgb(98.823529%,66.666669%,4.313726%);fill-opacity:1;" d="M 348 30 C 311.550781 30 282 59.550781 282 96 C 282 132.449219 311.550781 162 348 162 C 384.449219 162 414 132.449219 414 96 C 414 59.550781 384.449219 30 348 30 Z M 348 30 "/>
<path style=" stroke:none;fill-rule:nonzero;fill:rgb(100%,100%,100%);fill-opacity:1;" d="M 348 36 C 381.085938 36 408 62.914062 408 96 C 408 129.085938 381.085938 156 348 156 C 314.914062 156 288 129.085938 288 96 C 288 62.914062 314.914062 36 348 36 M 348 24 C 308.230469 24 276 56.230469 276 96 C 276 135.769531 308.230469 168 348 168 C 387.769531 168 420 135.769531 420 96 C 420 56.230469 387.769531 24 348 24 Z M 348 24 "/>
<path style=" stroke:none;fill-rule:nonzero;fill:rgb(98.823529%,66.666669%,4.313726%);fill-opacity:1;" d="M 360 318 C 323.550781 318 294 347.550781 294 384 C 294 420.449219 323.550781 450 360 450 C 396.449219 450 426 420.449219 426 384 C 426 347.550781 396.449219 318 360 318 Z M 360 318 "/>
<path style=" stroke:none;fill-rule:nonzero;fill:rgb(100%,100%,100%);fill-opacity:1;" d="M 360 324 C 393.085938 324 420 350.914062 420 384 C 420 417.085938 393.085938 444 360 444 C 326.914062 444 300 417.085938 300 384 C 300 350.914062 326.914062 324 360 324 M 360 312 C 320.230469 312 288 344.230469 288 384 C 288 423.769531 320.230469 456 360 456 C 399.769531 456 432 423.769531 432 384 C 432 344.230469 399.769531 312 360 312 Z M 360 312 "/>
<path style=" stroke:none;fill-rule:nonzero;fill:rgb(98.823529%,66.666669%,4.313726%);fill-opacity:1;" d="M 84 174 C 47.550781 174 18 203.550781 18 240 C 18 276.449219 47.550781 306 84 306 C 120.449219 306 150 276.449219 150 240 C 150 203.550781 120.449219 174 84 174 Z M 84 174 "/>
<path style=" stroke:none;fill-rule:nonzero;fill:rgb(100%,100%,100%);fill-opacity:1;" d="M 84 180 C 117.085938 180 144 206.914062 144 240 C 144 273.085938 117.085938 300 84 300 C 50.914062 300 24 273.085938 24 240 C 24 206.914062 50.914062 180 84 180 M 84 168 C 44.230469 168 12 200.230469 12 240 C 12 279.769531 44.230469 312 84 312 C 123.769531 312 156 279.769531 156 240 C 156 200.230469 123.769531 168 84 168 Z M 84 168 "/>
</g>
</svg>
